<svg width="28" height="41" viewBox="0 0 28 41" fill="none" xmlns="http://www.w3.org/2000/svg">
<path d="M21.0233 12.7343C21.0233 16.542 17.9365 19.6287 14.1288 19.6287C10.3211 19.6287 7.23438 16.542 7.23438 12.7343C7.23438 8.92659 10.3211 5.83984 14.1288 5.83984C17.9365 5.83984 21.0233 8.92659 21.0233 12.7343Z" fill="url(#paint0_linear_5186_30459)" fill-opacity="0.3"/>
<path d="M20.4659 12.7343C20.4659 9.23443 17.6287 6.39724 14.1288 6.39724C10.629 6.39724 7.79177 9.23443 7.79177 12.7343C7.79177 16.2342 10.629 19.0714 14.1288 19.0714V19.6287C10.3211 19.6287 7.23438 16.542 7.23438 12.7343C7.23438 8.92659 10.3211 5.83984 14.1288 5.83984C17.9365 5.83984 21.0233 8.92659 21.0233 12.7343C21.0233 16.542 17.9365 19.6287 14.1288 19.6287V19.0714C17.6287 19.0714 20.4659 16.2342 20.4659 12.7343Z" fill="url(#paint1_linear_5186_30459)" fill-opacity="0.5"/>
<path d="M24.025 30.6795C24.025 36.144 19.5952 36.1214 14.1307 36.1214C8.66618 36.1214 4.23633 36.144 4.23633 30.6795C4.23633 25.215 8.66618 20.7852 14.1307 20.7852C19.5952 20.7852 24.025 25.215 24.025 30.6795Z" fill="url(#paint2_linear_5186_30459)" fill-opacity="0.3"/>
<path d="M23.4674 30.6794C23.4674 25.5228 19.2872 21.3425 14.1306 21.3425C8.97399 21.3426 4.79377 25.5228 4.79372 30.6794C4.79372 31.9722 5.05586 32.8798 5.48066 33.53C5.90235 34.1755 6.51921 34.6211 7.33137 34.9284C9.00447 35.5614 11.3571 35.5642 14.1306 35.5642V36.1216L13.1192 36.1205C8.12984 36.103 4.23633 35.8024 4.23633 30.6794C4.23638 25.215 8.66615 20.7852 14.1306 20.7852C19.595 20.7852 24.0248 25.2149 24.0248 30.6794C24.0248 36.1439 19.5951 36.1216 14.1306 36.1216V35.5642C16.9041 35.5642 19.2567 35.5614 20.9298 34.9284C21.742 34.6211 22.3593 34.1755 22.781 33.53C23.2058 32.8798 23.4674 31.9721 23.4674 30.6794Z" fill="url(#paint3_linear_5186_30459)" fill-opacity="0.5"/>
<path d="M11.8516 13.4201C11.8516 13.1622 12.0606 12.9531 12.3185 12.9531C12.5764 12.9531 12.7855 13.1622 12.7855 13.4201V13.8728C12.7855 14.1307 12.5764 14.3398 12.3185 14.3398C12.0606 14.3398 11.8516 14.1307 11.8516 13.8728V13.4201Z" fill="url(#paint4_linear_5186_30459)" fill-opacity="0.3"/>
<path d="M15.4727 13.4201C15.4727 13.1622 15.6817 12.9531 15.9396 12.9531C16.1975 12.9531 16.4066 13.1622 16.4066 13.4201V13.8728C16.4066 14.1307 16.1975 14.3398 15.9396 14.3398C15.6817 14.3398 15.4727 14.1307 15.4727 13.8728V13.4201Z" fill="url(#paint5_linear_5186_30459)" fill-opacity="0.3"/>
<path d="M12.1295 16.8858C12.2672 17.071 12.5288 17.1095 12.7141 16.9718C13.0844 16.6963 14.2711 16.2306 15.6921 17.0039C15.8949 17.1141 16.1489 17.039 16.2593 16.8362C16.3695 16.6335 16.2944 16.3794 16.0916 16.269C14.346 15.3192 12.8104 15.8587 12.2155 16.3012C12.0302 16.4389 11.9917 16.7005 12.1295 16.8858Z" fill="white" fill-opacity="0.15"/>
<defs>
<linearGradient id="paint0_linear_5186_30459" x1="14.1309" y1="5.83984" x2="14.1309" y2="19.8548" gradientUnits="userSpaceOnUse">
<stop stop-color="white" stop-opacity="0.6"/>
<stop offset="1" stop-color="white" stop-opacity="0.4"/>
</linearGradient>
<linearGradient id="paint1_linear_5186_30459" x1="7.95714" y1="8.22193" x2="22.3698" y2="14.0445" gradientUnits="userSpaceOnUse">
<stop stop-color="white" stop-opacity="0.4"/>
<stop offset="1" stop-color="white" stop-opacity="0.1"/>
</linearGradient>
<linearGradient id="paint2_linear_5186_30459" x1="14.1337" y1="20.7852" x2="14.1337" y2="40.8982" gradientUnits="userSpaceOnUse">
<stop stop-color="white" stop-opacity="0.6"/>
<stop offset="1" stop-color="white" stop-opacity="0.4"/>
</linearGradient>
<linearGradient id="paint3_linear_5186_30459" x1="5.27358" y1="24.2037" x2="25.9575" y2="32.5597" gradientUnits="userSpaceOnUse">
<stop stop-color="white" stop-opacity="0.4"/>
<stop offset="1" stop-color="white" stop-opacity="0.1"/>
</linearGradient>
<linearGradient id="paint4_linear_5186_30459" x1="12.3187" y1="12.9531" x2="12.3187" y2="14.3625" gradientUnits="userSpaceOnUse">
<stop stop-color="white" stop-opacity="0.6"/>
<stop offset="1" stop-color="white" stop-opacity="0.4"/>
</linearGradient>
<linearGradient id="paint5_linear_5186_30459" x1="15.9398" y1="12.9531" x2="15.9398" y2="14.3625" gradientUnits="userSpaceOnUse">
<stop stop-color="white" stop-opacity="0.6"/>
<stop offset="1" stop-color="white" stop-opacity="0.4"/>
</linearGradient>
</defs>
</svg>
