<svg width="20" height="20" viewBox="0 0 20 20" fill="none" xmlns="http://www.w3.org/2000/svg">
<path d="M0 10C0 4.47715 4.47715 0 10 0C15.5228 0 20 4.47715 20 10C20 15.5228 15.5228 20 10 20C4.47715 20 0 15.5228 0 10Z" fill="#616161"/>
<path d="M0 10C0 4.47715 4.47715 0 10 0C15.5228 0 20 4.47715 20 10C20 15.5228 15.5228 20 10 20C4.47715 20 0 15.5228 0 10Z" fill="black" fill-opacity="0.2"/>
<path d="M0 10C0 4.47715 4.47715 0 10 0C15.5228 0 20 4.47715 20 10C20 15.5228 15.5228 20 10 20C4.47715 20 0 15.5228 0 10Z" fill="black" fill-opacity="0.2"/>
<path d="M6.5 8.212V7.5C6.5 6.57174 6.86875 5.6815 7.52513 5.02513C8.1815 4.36875 9.07174 4 10 4C10.9283 4 11.8185 4.36875 12.4749 5.02513C13.1313 5.6815 13.5 6.57174 13.5 7.5V8.212C13.9453 8.40635 14.3244 8.72626 14.5908 9.13261C14.8571 9.53895 14.9994 10.0141 15 10.5V13.5C14.9992 14.1628 14.7356 14.7982 14.2669 15.2669C13.7982 15.7356 13.1628 15.9992 12.5 16H7.5C6.8372 15.9992 6.20178 15.7356 5.73311 15.2669C5.26444 14.7982 5.00079 14.1628 5 13.5V10.5C5.00064 10.0141 5.14285 9.53895 5.40925 9.13261C5.67565 8.72626 6.05468 8.40635 6.5 8.212ZM12.5 7.5C12.5 6.83696 12.2366 6.20107 11.7678 5.73223C11.2989 5.26339 10.663 5 10 5C9.33696 5 8.70107 5.26339 8.23223 5.73223C7.76339 6.20107 7.5 6.83696 7.5 7.5V8H12.5V7.5ZM6 13.5C6 13.8978 6.15804 14.2794 6.43934 14.5607C6.72064 14.842 7.10218 15 7.5 15H12.5C12.8978 15 13.2794 14.842 13.5607 14.5607C13.842 14.2794 14 13.8978 14 13.5V10.5C14 10.1022 13.842 9.72064 13.5607 9.43934C13.2794 9.15804 12.8978 9 12.5 9H7.5C7.10218 9 6.72064 9.15804 6.43934 9.43934C6.15804 9.72064 6 10.1022 6 10.5V13.5Z" fill="#BDBDBD"/>
<path d="M10 11C10.1326 11 10.2598 11.0527 10.3536 11.1464C10.4473 11.2402 10.5 11.3674 10.5 11.5V12.5C10.5 12.6326 10.4473 12.7598 10.3536 12.8536C10.2598 12.9473 10.1326 13 10 13C9.86739 13 9.74021 12.9473 9.64644 12.8536C9.55267 12.7598 9.49999 12.6326 9.49999 12.5V11.5C9.49999 11.3674 9.55267 11.2402 9.64644 11.1464C9.74021 11.0527 9.86739 11 10 11Z" fill="#BDBDBD"/>
</svg>
