<svg width="13" height="13" viewBox="0 0 13 13" fill="none" xmlns="http://www.w3.org/2000/svg">
<g clip-path="url(#clip0_716_8007)">
<path d="M12.1879 2.15234H10.5163C10.4092 2.15237 10.3045 2.18415 10.2154 2.24367C10.1263 2.30319 10.0569 2.38778 10.016 2.48674C9.97496 2.5857 9.96424 2.69459 9.98513 2.79965C10.006 2.90471 10.0576 3.00122 10.1333 3.07697L10.7216 3.66522L8.77915 5.60709C8.67595 5.70573 8.53868 5.76077 8.39592 5.76077C8.25316 5.76077 8.1159 5.70573 8.01269 5.60709L7.92061 5.51447C7.61111 5.21876 7.19952 5.05374 6.77146 5.05374C6.3434 5.05374 5.93182 5.21876 5.62232 5.51447L2.85982 8.27697C2.75804 8.37904 2.70097 8.51736 2.70117 8.66151C2.70138 8.80565 2.75883 8.94381 2.8609 9.04559C2.96297 9.14738 3.10129 9.20444 3.24544 9.20424C3.38958 9.20404 3.52774 9.14658 3.62953 9.04451L6.39203 6.28201C6.49517 6.18325 6.63246 6.12812 6.77526 6.12812C6.91806 6.12812 7.05534 6.18325 7.15848 6.28201L7.25057 6.37464C7.56019 6.6701 7.97173 6.83495 8.39971 6.83495C8.8277 6.83495 9.23923 6.6701 9.54886 6.37464L11.4913 4.43222L12.0795 5.02047C12.1555 5.09497 12.2518 5.14544 12.3563 5.16555C12.4608 5.18567 12.569 5.17455 12.6672 5.13358C12.7654 5.09261 12.8494 5.02361 12.9087 4.93519C12.9679 4.84677 12.9998 4.74286 13.0004 4.63643V2.96484C13.0004 2.74936 12.9148 2.54269 12.7624 2.39032C12.61 2.23795 12.4033 2.15234 12.1879 2.15234Z" fill="black"/>
<path d="M12.4583 11.9037H2.70833C2.27736 11.9037 1.86403 11.7325 1.55928 11.4277C1.25454 11.123 1.08333 10.7096 1.08333 10.2787V0.541667C1.08333 0.398008 1.02627 0.260233 0.924683 0.15865C0.823101 0.0570683 0.685326 0 0.541667 0C0.398008 0 0.260233 0.0570683 0.158651 0.15865C0.0570683 0.260233 0 0.398008 0 0.541667L0 10.2787C0.00086009 10.9967 0.286478 11.6851 0.794202 12.1928C1.30193 12.7005 1.9903 12.9861 2.70833 12.987H12.4583C12.602 12.987 12.7398 12.9299 12.8414 12.8283C12.9429 12.7268 13 12.589 13 12.4453C13 12.3017 12.9429 12.1639 12.8414 12.0623C12.7398 11.9607 12.602 11.9037 12.4583 11.9037Z" fill="black"/>
</g>
<defs>
<clipPath id="clip0_716_8007">
<rect width="13" height="13" fill="white"/>
</clipPath>
</defs>
</svg>
