<svg width="12" height="13" viewBox="0 0 12 13" fill="none" xmlns="http://www.w3.org/2000/svg">
<path d="M6 6C6.66304 6 7.29893 6.26339 7.76777 6.73223C8.23661 7.20107 8.5 7.83696 8.5 8.5V11.5H3.5V8.5C3.5 7.83696 3.76339 7.20107 4.23223 6.73223C4.70107 6.26339 5.33696 6 6 6ZM2.644 7.503C2.56443 7.77139 2.51742 8.04838 2.504 8.328L2.5 8.5V11.5H1V9.25C0.999902 8.81879 1.15901 8.40272 1.44682 8.0816C1.73462 7.76049 2.13085 7.55694 2.5595 7.51L2.6445 7.503H2.644ZM9.356 7.503C9.80095 7.53012 10.2188 7.72598 10.5243 8.05062C10.8298 8.37526 10.9999 8.80422 11 9.25V11.5H9.5V8.5C9.5 8.1535 9.45 7.819 9.356 7.503ZM2.75 4.5C3.08152 4.5 3.39946 4.6317 3.63388 4.86612C3.8683 5.10054 4 5.41848 4 5.75C4 6.08152 3.8683 6.39946 3.63388 6.63388C3.39946 6.8683 3.08152 7 2.75 7C2.41848 7 2.10054 6.8683 1.86612 6.63388C1.6317 6.39946 1.5 6.08152 1.5 5.75C1.5 5.41848 1.6317 5.10054 1.86612 4.86612C2.10054 4.6317 2.41848 4.5 2.75 4.5ZM9.25 4.5C9.58152 4.5 9.89946 4.6317 10.1339 4.86612C10.3683 5.10054 10.5 5.41848 10.5 5.75C10.5 6.08152 10.3683 6.39946 10.1339 6.63388C9.89946 6.8683 9.58152 7 9.25 7C8.91848 7 8.60054 6.8683 8.36612 6.63388C8.1317 6.39946 8 6.08152 8 5.75C8 5.41848 8.1317 5.10054 8.36612 4.86612C8.60054 4.6317 8.91848 4.5 9.25 4.5ZM6 1.5C6.53043 1.5 7.03914 1.71071 7.41421 2.08579C7.78929 2.46086 8 2.96957 8 3.5C8 4.03043 7.78929 4.53914 7.41421 4.91421C7.03914 5.28929 6.53043 5.5 6 5.5C5.46957 5.5 4.96086 5.28929 4.58579 4.91421C4.21071 4.53914 4 4.03043 4 3.5C4 2.96957 4.21071 2.46086 4.58579 2.08579C4.96086 1.71071 5.46957 1.5 6 1.5Z" fill="#4BB329"/>
</svg>
