<svg width="16" height="16" viewBox="0 0 16 16" fill="none" xmlns="http://www.w3.org/2000/svg">
<g id="Group 633732">
<circle id="image" cx="8" cy="8" r="8" fill="#616161"/>
<path id="Vector" opacity="0.7" d="M7.99987 12C7.39871 12 6.81142 11.8319 6.31416 11.5177C5.8169 11.2034 5.4326 10.7574 5.21109 10.2376C4.98958 9.71774 4.94107 9.14797 5.07186 8.60217C5.20265 8.05636 5.5067 7.55969 5.94458 7.17656C6.48141 6.7066 7.79986 5.86047 7.59986 4C9.99996 5.48837 11.2 6.97674 8.79991 9.2093C9.19992 9.2093 9.79995 9.2093 10.8 8.29023C10.908 8.57786 11 8.88707 11 9.2093C11 9.94944 10.6839 10.6593 10.1213 11.1826C9.55865 11.706 8.79556 12 7.99987 12Z" fill="white"/>
</g>
</svg>
