<svg width="12" height="13" viewBox="0 0 12 13" fill="none" xmlns="http://www.w3.org/2000/svg">
<g id="fi-rr-thumbs-up" clip-path="url(#clip0_3676_13250)">
<path id="Vector" d="M11.3865 4.3602C11.152 4.09 10.8623 3.87334 10.5368 3.72488C10.2113 3.57642 9.85774 3.49962 9.5 3.4997H7.5055L7.6735 2.4792C7.73294 2.11983 7.66123 1.75107 7.47143 1.44017C7.28164 1.12927 6.98641 0.896957 6.6396 0.785596C6.29279 0.674236 5.9175 0.691251 5.58219 0.833538C5.24688 0.975825 4.97388 1.2339 4.813 1.5607L3.856 3.4997H2.5C1.8372 3.50049 1.20178 3.76414 0.73311 4.23281C0.264441 4.70148 0.000793929 5.3369 0 5.9997L0 8.4997C0.000793929 9.1625 0.264441 9.79792 0.73311 10.2666C1.20178 10.7353 1.8372 10.9989 2.5 10.9997H9.15C9.75173 10.9972 10.3326 10.7789 10.7869 10.3843C11.2412 9.98971 11.5388 9.44516 11.6255 8.8497L11.978 6.3497C12.0276 5.99507 12.0005 5.63391 11.8985 5.29067C11.7964 4.94742 11.6218 4.63011 11.3865 4.3602ZM1 8.4997V5.9997C1 5.60188 1.15804 5.22034 1.43934 4.93904C1.72064 4.65774 2.10218 4.4997 2.5 4.4997H3.5V9.9997H2.5C2.10218 9.9997 1.72064 9.84167 1.43934 9.56036C1.15804 9.27906 1 8.89752 1 8.4997ZM10.9855 6.2092L10.6325 8.7092C10.5809 9.06619 10.4029 9.39281 10.1308 9.62964C9.85873 9.86647 9.5107 9.99778 9.15 9.9997H4.5V4.3667C4.54712 4.32565 4.58613 4.27613 4.615 4.2207L5.7095 2.0032C5.75055 1.92917 5.80857 1.86593 5.87881 1.81868C5.94905 1.77144 6.0295 1.74153 6.11355 1.73143C6.1976 1.72133 6.28284 1.73131 6.36228 1.76056C6.44172 1.78982 6.51308 1.8375 6.5705 1.8997C6.61962 1.95682 6.65554 2.02408 6.67567 2.09668C6.69581 2.16928 6.69968 2.24543 6.687 2.3197L6.423 3.9197C6.41141 3.99119 6.41549 4.06434 6.43496 4.1341C6.45443 4.20386 6.48882 4.26856 6.53575 4.32371C6.58268 4.37887 6.64104 4.42318 6.70678 4.45356C6.77252 4.48395 6.84408 4.49969 6.9165 4.4997H9.5C9.7147 4.49967 9.92691 4.54573 10.1223 4.63477C10.3176 4.72381 10.4916 4.85375 10.6324 5.01582C10.7733 5.17788 10.8777 5.36829 10.9386 5.57417C10.9995 5.78005 11.0155 5.9966 10.9855 6.2092Z" fill="#9E9E9E"/>
</g>
<defs>
<clipPath id="clip0_3676_13250">
<rect width="12" height="12" fill="white" transform="translate(0 0.5)"/>
</clipPath>
</defs>
</svg>
