<svg width="12" height="13" viewBox="0 0 12 13" fill="none" xmlns="http://www.w3.org/2000/svg">
<g id="alert-triangle">
<path id="Vector" d="M5.14538 2.43059L0.910377 9.50059C0.823061 9.6518 0.77686 9.82324 0.776371 9.99785C0.775882 10.1725 0.821122 10.3442 0.90759 10.4959C0.994058 10.6476 1.11874 10.774 1.26923 10.8625C1.41972 10.9511 1.59078 10.9987 1.76538 11.0006H10.2354C10.41 10.9987 10.581 10.9511 10.7315 10.8625C10.882 10.774 11.0067 10.6476 11.0932 10.4959C11.1796 10.3442 11.2249 10.1725 11.2244 9.99785C11.2239 9.82324 11.1777 9.6518 11.0904 9.50059L6.85538 2.43059C6.76624 2.28364 6.64074 2.16215 6.49097 2.07783C6.34121 1.99351 6.17224 1.94922 6.00038 1.94922C5.82851 1.94922 5.65954 1.99351 5.50978 2.07783C5.36002 2.16215 5.23451 2.28364 5.14538 2.43059V2.43059Z" stroke="#616161" stroke-width="1.2" stroke-linecap="round" stroke-linejoin="round"/>
<path id="Vector_2" d="M6 5V7" stroke="#616161" stroke-width="1.2" stroke-linecap="round" stroke-linejoin="round"/>
<path id="Vector_3" d="M6 9H6.005" stroke="#616161" stroke-width="1.2" stroke-linecap="round" stroke-linejoin="round"/>
</g>
</svg>
