<svg width="40" height="40" viewBox="0 0 40 40" fill="none" xmlns="http://www.w3.org/2000/svg">
<circle cx="20" cy="20" r="20" fill="#464646"/>
<g clip-path="url(#clip0_664_2468)">
<path d="M25.25 11H14.75C13.7558 11.0012 12.8027 11.3967 12.0997 12.0997C11.3967 12.8027 11.0012 13.7558 11 14.75L11 25.25C11.0012 26.2442 11.3967 27.1973 12.0997 27.9003C12.8027 28.6033 13.7558 28.9988 14.75 29H25.25C26.2442 28.9988 27.1973 28.6033 27.9003 27.9003C28.6033 27.1973 28.9988 26.2442 29 25.25V14.75C28.9988 13.7558 28.6033 12.8027 27.9003 12.0997C27.1973 11.3967 26.2442 11.0012 25.25 11V11ZM14.75 12.5H25.25C25.8467 12.5 26.419 12.7371 26.841 13.159C27.2629 13.581 27.5 14.1533 27.5 14.75V25.25C27.4987 25.5841 27.4218 25.9136 27.275 26.2137L20.4028 19.3415C20.0545 18.9932 19.6411 18.7169 19.186 18.5283C18.731 18.3398 18.2433 18.2428 17.7508 18.2428C17.2582 18.2428 16.7705 18.3398 16.3155 18.5283C15.8604 18.7169 15.447 18.9932 15.0988 19.3415L12.5 21.9395V14.75C12.5 14.1533 12.7371 13.581 13.159 13.159C13.581 12.7371 14.1533 12.5 14.75 12.5ZM14.75 27.5C14.1533 27.5 13.581 27.2629 13.159 26.841C12.7371 26.419 12.5 25.8467 12.5 25.25V24.0605L16.1585 20.402C16.3675 20.1929 16.6156 20.0271 16.8886 19.9139C17.1617 19.8007 17.4544 19.7425 17.75 19.7425C18.0456 19.7425 18.3383 19.8007 18.6114 19.9139C18.8844 20.0271 19.1325 20.1929 19.3415 20.402L26.2137 27.275C25.9136 27.4218 25.5841 27.4987 25.25 27.5H14.75Z" fill="#BDBDBD"/>
<path d="M23 18.8748C23.5192 18.8748 24.0267 18.7208 24.4584 18.4324C24.8901 18.1439 25.2265 17.734 25.4252 17.2543C25.6239 16.7746 25.6758 16.2468 25.5746 15.7376C25.4733 15.2284 25.2233 14.7607 24.8562 14.3936C24.489 14.0265 24.0213 13.7765 23.5121 13.6752C23.0029 13.5739 22.4751 13.6259 21.9955 13.8246C21.5158 14.0233 21.1058 14.3597 20.8174 14.7914C20.529 15.2231 20.375 15.7306 20.375 16.2498C20.375 16.946 20.6516 17.6136 21.1438 18.1059C21.6361 18.5982 22.3038 18.8748 23 18.8748ZM23 15.1248C23.2225 15.1248 23.44 15.1907 23.625 15.3144C23.81 15.438 23.9542 15.6137 24.0394 15.8192C24.1245 16.0248 24.1468 16.251 24.1034 16.4692C24.06 16.6875 23.9528 16.8879 23.7955 17.0453C23.6382 17.2026 23.4377 17.3097 23.2195 17.3531C23.0012 17.3965 22.775 17.3743 22.5695 17.2891C22.3639 17.204 22.1882 17.0598 22.0646 16.8748C21.941 16.6898 21.875 16.4723 21.875 16.2498C21.875 15.9514 21.9935 15.6652 22.2045 15.4543C22.4155 15.2433 22.7016 15.1248 23 15.1248Z" fill="#BDBDBD"/>
</g>
<defs>
<clipPath id="clip0_664_2468">
<rect width="18" height="18" fill="white" transform="translate(11 11)"/>
</clipPath>
</defs>
</svg>
