<svg width="40" height="40" viewBox="0 0 40 40" fill="none" xmlns="http://www.w3.org/2000/svg">
<circle cx="20" cy="20" r="20" fill="#464646"/>
<g clip-path="url(#clip0_664_2465)">
<path d="M25.25 13H24.869L23.231 10.876C23.0199 10.6044 22.7497 10.3843 22.441 10.2325C22.1323 10.0808 21.793 10.0012 21.449 10H18.551C18.207 10.0012 17.8677 10.0808 17.559 10.2325C17.2503 10.3843 16.9801 10.6044 16.769 10.876L15.131 13H14.75C13.7558 13.0012 12.8027 13.3967 12.0997 14.0997C11.3967 14.8027 11.0012 15.7558 11 16.75V24.25C11.0012 25.2442 11.3967 26.1973 12.0997 26.9003C12.8027 27.6033 13.7558 27.9988 14.75 28H25.25C26.2442 27.9988 27.1973 27.6033 27.9003 26.9003C28.6033 26.1973 28.9988 25.2442 29 24.25V16.75C28.9988 15.7558 28.6033 14.8027 27.9003 14.0997C27.1973 13.3967 26.2442 13.0012 25.25 13ZM17.957 11.7925C18.0273 11.7018 18.1173 11.6283 18.2202 11.5776C18.3231 11.5269 18.4363 11.5004 18.551 11.5H21.449C21.5637 11.5005 21.6768 11.5271 21.7797 11.5778C21.8826 11.6284 21.9727 11.7019 22.043 11.7925L22.9745 13H17.0255L17.957 11.7925ZM27.5 24.25C27.5 24.8467 27.2629 25.419 26.841 25.841C26.419 26.2629 25.8467 26.5 25.25 26.5H14.75C14.1533 26.5 13.581 26.2629 13.159 25.841C12.7371 25.419 12.5 24.8467 12.5 24.25V16.75C12.5 16.1533 12.7371 15.581 13.159 15.159C13.581 14.7371 14.1533 14.5 14.75 14.5H25.25C25.8467 14.5 26.419 14.7371 26.841 15.159C27.2629 15.581 27.5 16.1533 27.5 16.75V24.25Z" fill="#BDBDBD"/>
<path d="M20 16C19.11 16 18.24 16.2639 17.4999 16.7584C16.7599 17.2529 16.1831 17.9557 15.8425 18.7779C15.5019 19.6002 15.4128 20.505 15.5865 21.3779C15.7601 22.2508 16.1887 23.0526 16.818 23.682C17.4474 24.3113 18.2492 24.7399 19.1221 24.9135C19.995 25.0872 20.8998 24.9981 21.7221 24.6575C22.5443 24.3169 23.2471 23.7401 23.7416 23.0001C24.2361 22.26 24.5 21.39 24.5 20.5C24.4988 19.3069 24.0243 18.163 23.1807 17.3193C22.337 16.4757 21.1931 16.0012 20 16ZM20 23.5C19.4067 23.5 18.8266 23.3241 18.3333 22.9944C17.8399 22.6648 17.4554 22.1962 17.2284 21.6481C17.0013 21.0999 16.9419 20.4967 17.0576 19.9147C17.1734 19.3328 17.4591 18.7982 17.8787 18.3787C18.2982 17.9591 18.8328 17.6734 19.4147 17.5576C19.9967 17.4419 20.5999 17.5013 21.1481 17.7284C21.6962 17.9554 22.1648 18.3399 22.4944 18.8333C22.8241 19.3266 23 19.9067 23 20.5C23 21.2957 22.6839 22.0587 22.1213 22.6213C21.5587 23.1839 20.7957 23.5 20 23.5Z" fill="#BDBDBD"/>
</g>
<defs>
<clipPath id="clip0_664_2465">
<rect width="18" height="18" fill="white" transform="translate(11 10)"/>
</clipPath>
</defs>
</svg>
