<svg width="12" height="13" viewBox="0 0 12 13" fill="none" xmlns="http://www.w3.org/2000/svg">
<g id="fi-rr-pencil" clip-path="url(#clip0_3676_14091)">
<path id="Vector" d="M11.4265 1.07495C11.0866 0.735552 10.6259 0.544922 10.1455 0.544922C9.66515 0.544922 9.20443 0.735552 8.86451 1.07495L0.732508 9.20695C0.499633 9.43852 0.314989 9.71396 0.189257 10.0173C0.0635245 10.3207 -0.000798988 10.646 7.49061e-06 10.9745V12.001C7.49061e-06 12.1336 0.0526859 12.2607 0.146454 12.3545C0.240222 12.4483 0.367399 12.501 0.500008 12.501H1.52651C1.85489 12.5019 2.18019 12.4377 2.48359 12.312C2.78698 12.1864 3.06243 12.0018 3.29401 11.769L11.4265 3.63645C11.7658 3.29655 11.9563 2.83594 11.9563 2.3557C11.9563 1.87547 11.7658 1.41486 11.4265 1.07495ZM2.58701 11.062C2.30501 11.3421 1.92399 11.4998 1.52651 11.501H1.00001V10.9745C0.999502 10.7774 1.03809 10.5822 1.11353 10.4002C1.18897 10.2181 1.29976 10.0529 1.43951 9.91395L7.61101 3.74245L8.76101 4.89245L2.58701 11.062ZM10.719 2.92945L9.46601 4.18295L8.31601 3.03545L9.56951 1.78195C9.64502 1.70661 9.73463 1.64687 9.83322 1.60616C9.93182 1.56544 10.0375 1.54455 10.1441 1.54466C10.2508 1.54478 10.3564 1.56591 10.4549 1.60683C10.5534 1.64776 10.6429 1.70769 10.7183 1.7832C10.7936 1.85871 10.8533 1.94832 10.8941 2.04692C10.9348 2.14552 10.9557 2.25117 10.9555 2.35784C10.9554 2.46451 10.9343 2.57011 10.8934 2.66862C10.8524 2.76713 10.7925 2.85661 10.717 2.93195L10.719 2.92945Z" fill="#BDBDBD"/>
</g>
<defs>
<clipPath id="clip0_3676_14091">
<rect width="12" height="12" fill="white" transform="translate(0 0.5)"/>
</clipPath>
</defs>
</svg>
