<svg width="40" height="40" viewBox="0 0 40 40" fill="none" xmlns="http://www.w3.org/2000/svg">
<path d="M20.0003 16.668C19.3411 16.668 18.6966 16.8635 18.1484 17.2297C17.6003 17.596 17.173 18.1166 16.9207 18.7257C16.6684 19.3348 16.6024 20.005 16.731 20.6516C16.8597 21.2982 17.1771 21.8921 17.6433 22.3583C18.1095 22.8245 18.7034 23.142 19.35 23.2706C19.9966 23.3992 20.6669 23.3332 21.2759 23.0809C21.885 22.8286 22.4056 22.4014 22.7719 21.8532C23.1382 21.305 23.3337 20.6606 23.3337 20.0013C23.3337 19.1172 22.9825 18.2694 22.3574 17.6443C21.7322 17.0192 20.8844 16.668 20.0003 16.668ZM20.0003 21.668C19.6707 21.668 19.3485 21.5702 19.0744 21.3871C18.8003 21.2039 18.5867 20.9437 18.4605 20.6391C18.3344 20.3346 18.3014 19.9995 18.3657 19.6762C18.43 19.3528 18.5887 19.0559 18.8218 18.8228C19.0549 18.5897 19.3519 18.431 19.6752 18.3667C19.9985 18.3024 20.3336 18.3354 20.6381 18.4615C20.9427 18.5876 21.203 18.8013 21.3861 19.0754C21.5692 19.3494 21.667 19.6717 21.667 20.0013C21.667 20.4433 21.4914 20.8673 21.1788 21.1798C20.8663 21.4924 20.4424 21.668 20.0003 21.668Z" fill="white"/>
<path d="M27.7452 21.5833L27.3752 21.37C27.5417 20.4637 27.5417 19.5346 27.3752 18.6283L27.7452 18.415C28.0297 18.2508 28.2791 18.0323 28.4792 17.7717C28.6792 17.5112 28.826 17.2138 28.9111 16.8965C28.9962 16.5792 29.018 16.2483 28.9753 15.9226C28.9325 15.5969 28.826 15.2829 28.6618 14.9983C28.4977 14.7138 28.2791 14.4644 28.0185 14.2643C27.758 14.0643 27.4606 13.9175 27.1433 13.8324C26.8261 13.7473 26.4951 13.7255 26.1695 13.7682C25.8438 13.811 25.5297 13.9175 25.2452 14.0817L24.8743 14.2958C24.1739 13.6974 23.369 13.2335 22.5002 12.9275V12.5C22.5002 11.837 22.2368 11.2011 21.7679 10.7322C21.2991 10.2634 20.6632 10 20.0002 10C19.3371 10 18.7012 10.2634 18.2324 10.7322C17.7635 11.2011 17.5002 11.837 17.5002 12.5V12.9275C16.6313 13.2346 15.8267 13.6997 15.1268 14.2992L14.7543 14.0833C14.1797 13.7518 13.4969 13.6621 12.8561 13.8341C12.2154 14.006 11.6692 14.4254 11.3377 15C11.0061 15.5746 10.9165 16.2574 11.0884 16.8982C11.2603 17.5389 11.6797 18.0851 12.2543 18.4167L12.6243 18.63C12.4577 19.5363 12.4577 20.4654 12.6243 21.3717L12.2543 21.585C11.6797 21.9165 11.2603 22.4627 11.0884 23.1035C10.9165 23.7442 11.0061 24.427 11.3377 25.0017C11.6692 25.5763 12.2154 25.9957 12.8561 26.1676C13.4969 26.3395 14.1797 26.2499 14.7543 25.9183L15.1252 25.7042C15.8258 26.3027 16.631 26.7666 17.5002 27.0725V27.5C17.5002 28.163 17.7635 28.7989 18.2324 29.2678C18.7012 29.7366 19.3371 30 20.0002 30C20.6632 30 21.2991 29.7366 21.7679 29.2678C22.2368 28.7989 22.5002 28.163 22.5002 27.5V27.0725C23.369 26.7654 24.1736 26.3003 24.8735 25.7008L25.246 25.9158C25.8206 26.2474 26.5034 26.337 27.1442 26.1651C27.7849 25.9932 28.3311 25.5738 28.6627 24.9992C28.9942 24.4245 29.0838 23.7417 28.9119 23.101C28.74 22.4602 28.3206 21.914 27.746 21.5825L27.7452 21.5833ZM25.6218 18.4367C25.904 19.4592 25.904 20.5391 25.6218 21.5617C25.5726 21.7396 25.5838 21.9289 25.6538 22.0998C25.7238 22.2707 25.8485 22.4135 26.0085 22.5058L26.9118 23.0275C27.1033 23.138 27.2431 23.3201 27.3004 23.5336C27.3577 23.7472 27.3277 23.9747 27.2172 24.1663C27.1067 24.3578 26.9247 24.4975 26.7111 24.5548C26.4976 24.6121 26.27 24.5822 26.0785 24.4717L25.1735 23.9483C25.0134 23.8556 24.827 23.8188 24.6437 23.8437C24.4604 23.8686 24.2906 23.9538 24.161 24.0858C23.4193 24.843 22.4848 25.3833 21.4585 25.6483C21.2794 25.6944 21.1206 25.7987 21.0073 25.9449C20.894 26.0911 20.8326 26.2709 20.8327 26.4558V27.5C20.8327 27.721 20.7449 27.933 20.5886 28.0893C20.4323 28.2455 20.2203 28.3333 19.9993 28.3333C19.7783 28.3333 19.5663 28.2455 19.4101 28.0893C19.2538 27.933 19.166 27.721 19.166 27.5V26.4567C19.1661 26.2717 19.1046 26.092 18.9913 25.9458C18.878 25.7996 18.7193 25.6952 18.5402 25.6492C17.5138 25.3831 16.5796 24.8416 15.8385 24.0833C15.7089 23.9513 15.5391 23.8661 15.3558 23.8412C15.1725 23.8163 14.9861 23.8531 14.826 23.9458L13.9227 24.4683C13.8278 24.5239 13.723 24.5602 13.6141 24.5751C13.5052 24.59 13.3945 24.5832 13.2882 24.5551C13.182 24.527 13.0823 24.4782 12.995 24.4114C12.9077 24.3446 12.8345 24.2613 12.7795 24.1661C12.7246 24.0709 12.689 23.9658 12.6748 23.8568C12.6607 23.7479 12.6682 23.6372 12.697 23.5311C12.7258 23.425 12.7753 23.3257 12.8426 23.2389C12.9099 23.152 12.9938 23.0793 13.0893 23.025L13.9927 22.5033C14.1526 22.411 14.2774 22.2682 14.3474 22.0973C14.4174 21.9264 14.4286 21.7371 14.3793 21.5592C14.0971 20.5366 14.0971 19.4567 14.3793 18.4342C14.4277 18.2566 14.4159 18.0679 14.3458 17.8977C14.2757 17.7275 14.1513 17.5853 13.9918 17.4933L13.0885 16.9717C12.897 16.8612 12.7572 16.6791 12.6999 16.4655C12.6427 16.252 12.6726 16.0244 12.7831 15.8329C12.8936 15.6414 13.0756 15.5016 13.2892 15.4444C13.5028 15.3871 13.7303 15.417 13.9218 15.5275L14.8268 16.0508C14.9865 16.1438 15.1725 16.181 15.3556 16.1567C15.5387 16.1324 15.7086 16.048 15.8385 15.9167C16.5802 15.1595 17.5147 14.6192 18.541 14.3542C18.7207 14.308 18.8798 14.2031 18.9932 14.0563C19.1066 13.9094 19.1677 13.7289 19.1668 13.5433V12.5C19.1668 12.279 19.2546 12.067 19.4109 11.9107C19.5672 11.7545 19.7791 11.6667 20.0002 11.6667C20.2212 11.6667 20.4331 11.7545 20.5894 11.9107C20.7457 12.067 20.8335 12.279 20.8335 12.5V13.5433C20.8334 13.7283 20.8948 13.908 21.0082 14.0542C21.1215 14.2004 21.2802 14.3048 21.4593 14.3508C22.486 14.6168 23.4205 15.1582 24.1618 15.9167C24.2914 16.0487 24.4612 16.1339 24.6445 16.1588C24.8278 16.1837 25.0142 16.1469 25.1743 16.0542L26.0777 15.5317C26.1725 15.4761 26.2773 15.4398 26.3862 15.4249C26.4951 15.41 26.6059 15.4168 26.7121 15.4449C26.8184 15.473 26.918 15.5218 27.0053 15.5886C27.0926 15.6554 27.1658 15.7387 27.2208 15.8339C27.2757 15.9291 27.3113 16.0342 27.3255 16.1432C27.3397 16.2521 27.3321 16.3628 27.3033 16.4689C27.2745 16.575 27.225 16.6743 27.1577 16.7611C27.0904 16.848 27.0065 16.9207 26.911 16.975L26.0077 17.4967C25.8485 17.5889 25.7244 17.7312 25.6546 17.9014C25.5848 18.0716 25.5733 18.2601 25.6218 18.4375V18.4367Z" fill="white"/>
</svg>
