<svg width="32" height="32" viewBox="0 0 32 32" fill="none" xmlns="http://www.w3.org/2000/svg">
<path d="M23.4129 8.58762C23.1739 8.3457 22.8765 8.16951 22.5494 8.07608C22.2224 7.98265 21.8768 7.97514 21.546 8.05427L10.8779 10.301C10.2636 10.3852 9.68493 10.6393 9.20718 11.0346C8.72943 11.4299 8.37154 11.9507 8.17382 12.5384C7.9761 13.1261 7.94641 13.7573 8.08808 14.361C8.22974 14.9646 8.53715 15.5167 8.97568 15.9551L10.1212 17.0998C10.1832 17.1618 10.2323 17.2354 10.2659 17.3164C10.2994 17.3974 10.3166 17.4842 10.3165 17.5718V19.6839C10.318 19.9809 10.3864 20.2737 10.5165 20.5406L10.5112 20.5452L10.5286 20.5626C10.7239 20.9553 11.043 21.273 11.4367 21.4666L11.454 21.4839L11.4587 21.4786C11.7256 21.6088 12.0185 21.6771 12.3155 21.6786H14.4277C14.6045 21.6785 14.774 21.7485 14.8991 21.8733L16.0439 23.018C16.351 23.3284 16.7165 23.575 17.1193 23.7435C17.5221 23.9121 17.9543 23.9992 18.3909 24C18.7548 23.9995 19.1162 23.9401 19.4611 23.824C20.0434 23.6328 20.5608 23.2827 20.9548 22.8131C21.3487 22.3436 21.6036 21.7733 21.6907 21.1666L23.941 10.4763C24.0242 10.1427 24.0193 9.79326 23.9268 9.46215C23.8342 9.13103 23.6571 8.82967 23.4129 8.58762ZM11.0653 16.1585L9.91914 15.0138C9.65225 14.7533 9.46519 14.4222 9.37992 14.0592C9.29465 13.6962 9.31471 13.3164 9.43774 12.9644C9.55702 12.6033 9.77752 12.284 10.073 12.0445C10.3685 11.8051 10.7266 11.6556 11.1046 11.6137L21.6667 9.3903L11.6487 19.4086V17.5718C11.6497 17.3094 11.5987 17.0493 11.4985 16.8067C11.3984 16.5641 11.2511 16.3438 11.0653 16.1585ZM20.3805 20.9386C20.3293 21.3068 20.1765 21.6535 19.9392 21.9397C19.7019 22.2259 19.3895 22.4403 19.0371 22.5589C18.6847 22.6774 18.3062 22.6954 17.9442 22.6108C17.5821 22.5262 17.2508 22.3424 16.9874 22.08L15.8406 20.9333C15.6555 20.7471 15.4353 20.5996 15.1928 20.4991C14.9503 20.3986 14.6902 20.3472 14.4277 20.3479H12.5908L22.6101 10.333L20.3805 20.9386Z" fill="white"/>
</svg>
