<svg width="40" height="40" viewBox="0 0 40 40" fill="none" xmlns="http://www.w3.org/2000/svg">
<circle cx="20" cy="20" r="20" fill="#464646"/>
<g clip-path="url(#clip0_664_2491)">
<path d="M27.9171 21.2465L26.4921 16.1195C26.0744 14.6175 25.1666 13.2982 23.9131 12.3714C22.6595 11.4445 21.1321 10.9633 19.5737 11.0041C18.0152 11.045 16.5151 11.6056 15.3119 12.5969C14.1086 13.5881 13.2712 14.9532 12.9328 16.475L11.8296 21.4363C11.7077 21.9845 11.7105 22.553 11.8378 23.1C11.9651 23.647 12.2136 24.1584 12.565 24.5964C12.9164 25.0345 13.3617 25.388 13.868 25.631C14.3743 25.8739 14.9288 26 15.4903 26H16.3258C16.498 26.8477 16.9579 27.6099 17.6276 28.1573C18.2974 28.7047 19.1358 29.0038 20.0008 29.0038C20.8659 29.0038 21.7043 28.7047 22.374 28.1573C23.0438 27.6099 23.5037 26.8477 23.6758 26H24.3043C24.8824 26.0001 25.4527 25.8664 25.9707 25.6096C26.4886 25.3527 26.9401 24.9796 27.29 24.5194C27.6398 24.0592 27.8785 23.5243 27.9874 22.9565C28.0964 22.3888 28.0725 21.8035 27.9178 21.2465H27.9171ZM20.0008 27.5C19.5371 27.4981 19.0854 27.3529 18.7073 27.0844C18.3293 26.8159 18.0434 26.4372 17.8888 26H22.1128C21.9583 26.4372 21.6724 26.8159 21.2944 27.0844C20.9163 27.3529 20.4645 27.4981 20.0008 27.5ZM26.0953 23.6113C25.8863 23.8885 25.6156 24.1132 25.3045 24.2675C24.9935 24.4218 24.6508 24.5014 24.3036 24.5H15.4903C15.1534 24.5 14.8208 24.4242 14.5171 24.2784C14.2134 24.1327 13.9462 23.9205 13.7355 23.6577C13.5247 23.3949 13.3756 23.088 13.2993 22.7599C13.2229 22.4318 13.2212 22.0906 13.2943 21.7618L14.3968 16.7998C14.6626 15.6044 15.3203 14.5322 16.2654 13.7536C17.2105 12.975 18.3888 12.5346 19.6129 12.5026C20.837 12.4705 22.0367 12.8486 23.0213 13.5766C24.0059 14.3047 24.7189 15.341 25.0468 16.5208L26.4718 21.6478C26.566 21.9818 26.581 22.3332 26.5156 22.674C26.4503 23.0148 26.3064 23.3358 26.0953 23.6113Z" fill="#BDBDBD"/>
</g>
<defs>
<clipPath id="clip0_664_2491">
<rect width="18" height="18" fill="white" transform="translate(11 11)"/>
</clipPath>
</defs>
</svg>
