<svg width="16" height="16" viewBox="0 0 16 16" fill="none" xmlns="http://www.w3.org/2000/svg">
<g id="Group 633733">
<circle id="image" cx="8" cy="8" r="8" fill="#616161"/>
<path id="Vector" opacity="0.7" d="M6.4 4C6.62091 4 6.8 4.17909 6.8 4.4V4.72727C6.8 4.76744 6.83256 4.8 6.87273 4.8H9.12727C9.16744 4.8 9.2 4.76744 9.2 4.72727V4.4C9.2 4.17909 9.37909 4 9.6 4C9.82091 4 10 4.17909 10 4.4V4.72727C10 4.76744 10.0326 4.8 10.0727 4.8H11.6C11.7061 4.8 11.8078 4.84214 11.8828 4.91716C11.9579 4.99217 12 5.09391 12 5.2V11.6C12 11.7061 11.9579 11.8078 11.8828 11.8828C11.8078 11.9579 11.7061 12 11.6 12H4.4C4.29391 12 4.19217 11.9579 4.11716 11.8828C4.04214 11.8078 4 11.7061 4 11.6V5.2C4 5.09391 4.04214 4.99217 4.11716 4.91716C4.19217 4.84214 4.29391 4.8 4.4 4.8H5.92727C5.96744 4.8 6 4.76744 6 4.72727V4.4C6 4.17909 6.17909 4 6.4 4ZM11.2 6.9C11.2 6.84477 11.1552 6.8 11.1 6.8H4.9C4.84477 6.8 4.8 6.84477 4.8 6.9V11.1C4.8 11.1552 4.84477 11.2 4.9 11.2H11.1C11.1552 11.2 11.2 11.1552 11.2 11.1V6.9ZM8.93162 7.93726C9.08779 7.78105 9.34103 7.78103 9.49722 7.93722C9.6534 8.0934 9.6534 8.34661 9.49722 8.50278L8.15355 9.84645C7.95829 10.0417 7.64171 10.0417 7.44645 9.84645L6.66877 9.06877C6.51241 8.91241 6.5125 8.65888 6.66897 8.50263C6.8253 8.34652 7.07858 8.34664 7.23477 8.5029L7.6306 8.89892C7.72437 8.99273 7.87644 8.99274 7.97021 8.89894L8.93162 7.93726Z" fill="white"/>
</g>
</svg>
