<svg width="16" height="16" viewBox="0 0 16 16" fill="none" xmlns="http://www.w3.org/2000/svg">
<g id="Group 633734">
<circle id="image" cx="8" cy="8" r="8" fill="#616161"/>
<path id="Vector" opacity="0.7" d="M8.36364 10.4203V11.2222H9.79293C10.0077 11.2222 10.1818 11.3963 10.1818 11.6111C10.1818 11.8259 10.0077 12 9.79293 12H6.20707C5.99229 12 5.81818 11.8259 5.81818 11.6111C5.81818 11.3963 5.99229 11.2222 6.20707 11.2222H7.63636V10.4203C6.93335 10.3255 6.28684 9.9596 5.81818 9.39124C5.34952 8.82287 5.09092 8.09113 5.09091 7.33333V5H10.9091V7.33333C10.9091 8.09113 10.6505 8.82287 10.1818 9.39124C9.71316 9.9596 9.06665 10.3255 8.36364 10.4203ZM4 6.14141C4 5.94058 4.16281 5.77778 4.36364 5.77778C4.56447 5.77778 4.72727 5.94058 4.72727 6.14141V6.9697C4.72727 7.17053 4.56447 7.33333 4.36364 7.33333C4.16281 7.33333 4 7.17053 4 6.9697V6.14141ZM11.2727 6.14141C11.2727 5.94058 11.4355 5.77778 11.6364 5.77778C11.8372 5.77778 12 5.94058 12 6.14141V6.9697C12 7.17053 11.8372 7.33333 11.6364 7.33333C11.4355 7.33333 11.2727 7.17053 11.2727 6.9697V6.14141Z" fill="white"/>
</g>
</svg>
