<svg width="57" height="41" viewBox="0 0 57 41" fill="none" xmlns="http://www.w3.org/2000/svg">
<path d="M35.6302 15.0319C35.6302 18.909 32.4871 22.0521 28.61 22.0521C24.7329 22.0521 21.5898 18.909 21.5898 15.0319C21.5898 11.1548 24.7329 8.01172 28.61 8.01172C32.4871 8.01172 35.6302 11.1548 35.6302 15.0319Z" fill="url(#paint0_linear_5186_30458)" fill-opacity="0.3"/>
<path d="M35.0626 15.0319C35.0626 11.4682 32.1737 8.57927 28.61 8.57927C25.0463 8.57927 22.1574 11.4682 22.1574 15.0319C22.1574 18.5956 25.0463 21.4845 28.61 21.4845V22.0521C24.7329 22.0521 21.5898 18.909 21.5898 15.0319C21.5898 11.1548 24.7329 8.01172 28.61 8.01172C32.4871 8.01172 35.6302 11.1548 35.6302 15.0319C35.6302 18.909 32.4871 22.0521 28.61 22.0521V21.4845C32.1737 21.4845 35.0626 18.5956 35.0626 15.0319Z" fill="url(#paint1_linear_5186_30458)" fill-opacity="0.5"/>
<path d="M26.291 13.8036C26.291 13.541 26.5039 13.3281 26.7665 13.3281C27.0291 13.3281 27.242 13.541 27.242 13.8036V14.2646C27.242 14.5272 27.0291 14.7401 26.7665 14.7401C26.5039 14.7401 26.291 14.5272 26.291 14.2646V13.8036Z" fill="url(#paint2_linear_5186_30458)" fill-opacity="0.3"/>
<path d="M29.9805 13.8036C29.9805 13.541 30.1933 13.3281 30.4559 13.3281C30.7185 13.3281 30.9314 13.541 30.9314 13.8036V14.2646C30.9314 14.5272 30.7185 14.7401 30.4559 14.7401C30.1933 14.7401 29.9805 14.5272 29.9805 14.2646V13.8036Z" fill="url(#paint3_linear_5186_30458)" fill-opacity="0.3"/>
<path d="M26.5743 16.34C26.7146 16.1514 26.981 16.1122 27.1696 16.2524C27.5467 16.5329 28.755 17.0071 30.2019 16.2197C30.4084 16.1074 30.6671 16.184 30.7794 16.3904C30.8917 16.5969 30.8152 16.8556 30.6087 16.9679C28.8313 17.9351 27.2677 17.3858 26.6619 16.9352C26.4733 16.795 26.4341 16.5286 26.5743 16.34Z" fill="white" fill-opacity="0.15"/>
<path d="M38.6866 33.2427C38.6866 38.8069 34.176 38.7839 28.6119 38.7839C23.0477 38.7839 18.5371 38.8069 18.5371 33.2427C18.5371 27.6786 23.0477 23.168 28.6119 23.168C34.176 23.168 38.6866 27.6786 38.6866 33.2427Z" fill="url(#paint4_linear_5186_30458)" fill-opacity="0.3"/>
<path d="M38.1189 33.2426C38.1188 27.992 33.8624 23.7355 28.6118 23.7355C23.3612 23.7356 19.1047 27.992 19.1047 33.2426C19.1047 34.559 19.3716 35.4832 19.8041 36.1452C20.2335 36.8024 20.8616 37.2562 21.6886 37.5691C23.3922 38.2136 25.7877 38.2165 28.6118 38.2165V38.784L27.582 38.7829C22.5016 38.7651 18.5371 38.4591 18.5371 33.2426C18.5372 27.6786 23.0477 23.168 28.6118 23.168C34.1759 23.168 38.6864 27.6785 38.6864 33.2426C38.6864 38.8068 34.1759 38.784 28.6118 38.784V38.2165C31.4358 38.2165 33.8313 38.2136 35.5349 37.5691C36.362 37.2562 36.9906 36.8025 37.4199 36.1452C37.8524 35.4832 38.1189 34.5589 38.1189 33.2426Z" fill="url(#paint5_linear_5186_30458)" fill-opacity="0.5"/>
<path d="M20.3099 9.71548C20.3099 13.5926 17.1668 16.7356 13.2897 16.7356C9.41257 16.7356 6.26953 13.5926 6.26953 9.71548C6.26953 5.83835 9.41257 2.69531 13.2897 2.69531C17.1668 2.69531 20.3099 5.83835 20.3099 9.71548Z" fill="url(#paint6_linear_5186_30458)" fill-opacity="0.3"/>
<path d="M19.7423 9.71548C19.7423 6.1518 16.8534 3.26287 13.2897 3.26287C9.72602 3.26287 6.83709 6.1518 6.83709 9.71548C6.83709 13.2792 9.72602 16.1681 13.2897 16.1681V16.7356C9.41257 16.7356 6.26953 13.5926 6.26953 9.71548C6.26953 5.83835 9.41257 2.69531 13.2897 2.69531C17.1668 2.69531 20.3099 5.83835 20.3099 9.71548C20.3099 13.5926 17.1668 16.7356 13.2897 16.7356V16.1681C16.8534 16.1681 19.7423 13.2792 19.7423 9.71548Z" fill="url(#paint7_linear_5186_30458)" fill-opacity="0.5"/>
<path d="M10.9688 8.4872C10.9688 8.2246 11.1816 8.01172 11.4442 8.01172C11.7068 8.01172 11.9197 8.2246 11.9197 8.4872V8.9482C11.9197 9.2108 11.7068 9.42368 11.4442 9.42368C11.1816 9.42368 10.9688 9.2108 10.9688 8.9482V8.4872Z" fill="url(#paint8_linear_5186_30458)" fill-opacity="0.3"/>
<path d="M14.6582 8.4872C14.6582 8.2246 14.8711 8.01172 15.1337 8.01172C15.3963 8.01172 15.6092 8.2246 15.6092 8.4872V8.9482C15.6092 9.2108 15.3963 9.42368 15.1337 9.42368C14.8711 9.42368 14.6582 9.2108 14.6582 8.9482V8.4872Z" fill="url(#paint9_linear_5186_30458)" fill-opacity="0.3"/>
<path d="M11.2521 11.0236C11.3923 10.835 11.6587 10.7958 11.8473 10.936C12.2244 11.2165 13.4327 11.6906 14.8796 10.9033C15.0861 10.791 15.3448 10.8676 15.4572 11.074C15.5694 11.2805 15.4929 11.5392 15.2865 11.6515C13.509 12.6187 11.9454 12.0694 11.3396 11.6188C11.151 11.4785 11.1118 11.2122 11.2521 11.0236Z" fill="white" fill-opacity="0.15"/>
<path d="M13.2901 17.9141C17.4006 17.9141 20.935 20.3764 22.5017 23.9061C19.4321 25.9059 17.4026 29.3684 17.4026 33.3051C17.4026 33.3471 17.4038 33.3888 17.4043 33.4304C16.148 33.5297 14.7557 33.5301 13.2901 33.5301C7.72592 33.5301 3.21484 33.5529 3.21484 27.9887C3.2149 22.4246 7.72595 17.9141 13.2901 17.9141Z" fill="url(#paint10_linear_5186_30458)" fill-opacity="0.3"/>
<path d="M3.21484 27.9887C3.2149 22.4246 7.72595 17.9141 13.2901 17.9141C17.4006 17.9141 20.935 20.3764 22.5017 23.9061C19.4321 25.9059 17.4026 29.3684 17.4026 33.3051C17.4026 33.3471 17.4038 33.3888 17.4043 33.4304C16.148 33.5297 14.7557 33.5301 13.2901 33.5301V32.9626C14.5578 32.9626 15.7495 32.9612 16.8417 32.8988C16.9703 29.1086 18.891 25.774 21.7801 23.7127C20.2652 20.7108 17.2093 18.6215 13.652 18.4883L13.2901 18.4816C8.12146 18.4816 3.91603 22.6061 3.78572 27.7432L3.7824 27.9887C3.7824 29.3051 4.04927 30.2292 4.48187 30.8913C4.91131 31.5486 5.53979 32.0023 6.36688 32.3152C8.0706 32.9598 10.4661 32.9626 13.2901 32.9626V33.5301C7.72592 33.5301 3.21484 33.5529 3.21484 27.9887Z" fill="url(#paint11_linear_5186_30458)" fill-opacity="0.5"/>
<path d="M36.6921 9.71548C36.6921 13.5926 39.8351 16.7356 43.7123 16.7356C47.5894 16.7356 50.7324 13.5926 50.7324 9.71548C50.7324 5.83835 47.5894 2.69531 43.7123 2.69531C39.8351 2.69531 36.6921 5.83835 36.6921 9.71548Z" fill="url(#paint12_linear_5186_30458)" fill-opacity="0.3"/>
<path d="M37.2596 9.71548C37.2596 6.1518 40.1486 3.26287 43.7123 3.26287C47.2759 3.26287 50.1649 6.1518 50.1649 9.71548C50.1649 13.2792 47.2759 16.1681 43.7123 16.1681V16.7356C47.5894 16.7356 50.7324 13.5926 50.7324 9.71548C50.7324 5.83835 47.5894 2.69531 43.7123 2.69531C39.8351 2.69531 36.6921 5.83835 36.6921 9.71548C36.6921 13.5926 39.8351 16.7356 43.7123 16.7356V16.1681C40.1486 16.1681 37.2596 13.2792 37.2596 9.71548Z" fill="url(#paint13_linear_5186_30458)" fill-opacity="0.5"/>
<path d="M46.0312 8.4872C46.0312 8.2246 45.8184 8.01172 45.5558 8.01172C45.2932 8.01172 45.0803 8.2246 45.0803 8.4872V8.9482C45.0803 9.2108 45.2932 9.42368 45.5558 9.42368C45.8184 9.42368 46.0312 9.2108 46.0312 8.9482V8.4872Z" fill="url(#paint14_linear_5186_30458)" fill-opacity="0.3"/>
<path d="M42.3418 8.4872C42.3418 8.2246 42.1289 8.01172 41.8663 8.01172C41.6037 8.01172 41.3908 8.2246 41.3908 8.4872V8.9482C41.3908 9.2108 41.6037 9.42368 41.8663 9.42368C42.1289 9.42368 42.3418 9.2108 42.3418 8.9482V8.4872Z" fill="url(#paint15_linear_5186_30458)" fill-opacity="0.3"/>
<path d="M45.7479 11.0236C45.6077 10.835 45.3413 10.7958 45.1527 10.936C44.7756 11.2165 43.5673 11.6906 42.1204 10.9033C41.9139 10.791 41.6552 10.8676 41.5428 11.074C41.4306 11.2805 41.5071 11.5392 41.7135 11.6515C43.491 12.6187 45.0546 12.0694 45.6604 11.6188C45.849 11.4785 45.8882 11.2122 45.7479 11.0236Z" fill="white" fill-opacity="0.15"/>
<path d="M43.7119 17.9141C39.6013 17.9141 36.0669 20.3764 34.5002 23.9061C37.5698 25.9059 39.5993 29.3684 39.5993 33.3051C39.5993 33.3471 39.5981 33.3888 39.5977 33.4304C40.8539 33.5297 42.2463 33.5301 43.7119 33.5301C49.276 33.5301 53.7871 33.5529 53.7871 27.9887C53.7871 22.4246 49.276 17.9141 43.7119 17.9141Z" fill="url(#paint16_linear_5186_30458)" fill-opacity="0.3"/>
<path d="M53.7871 27.9887C53.7871 22.4246 49.276 17.9141 43.7119 17.9141C39.6013 17.9141 36.0669 20.3764 34.5002 23.9061C37.5698 25.9059 39.5993 29.3684 39.5993 33.3051C39.5993 33.3471 39.5981 33.3888 39.5977 33.4304C40.8539 33.5297 42.2463 33.5301 43.7119 33.5301V32.9626C42.4441 32.9626 41.2524 32.9612 40.1602 32.8988C40.0317 29.1086 38.1109 25.774 35.2219 23.7127C36.7367 20.7108 39.7926 18.6215 43.35 18.4883L43.7119 18.4816C48.8805 18.4816 53.0859 22.6061 53.2162 27.7432L53.2196 27.9887C53.2196 29.3051 52.9527 30.2292 52.5201 30.8913C52.0906 31.5486 51.4622 32.0023 50.6351 32.3152C48.9313 32.9598 46.5359 32.9626 43.7119 32.9626V33.5301C49.276 33.5301 53.7871 33.5529 53.7871 27.9887Z" fill="url(#paint17_linear_5186_30458)" fill-opacity="0.5"/>
<defs>
<linearGradient id="paint0_linear_5186_30458" x1="28.6121" y1="8.01172" x2="28.6121" y2="22.2822" gradientUnits="userSpaceOnUse">
<stop stop-color="white" stop-opacity="0.6"/>
<stop offset="1" stop-color="white" stop-opacity="0.4"/>
</linearGradient>
<linearGradient id="paint1_linear_5186_30458" x1="22.3258" y1="10.4372" x2="37.0013" y2="16.3659" gradientUnits="userSpaceOnUse">
<stop stop-color="white" stop-opacity="0.4"/>
<stop offset="1" stop-color="white" stop-opacity="0.1"/>
</linearGradient>
<linearGradient id="paint2_linear_5186_30458" x1="26.7666" y1="13.3281" x2="26.7666" y2="14.7632" gradientUnits="userSpaceOnUse">
<stop stop-color="white" stop-opacity="0.6"/>
<stop offset="1" stop-color="white" stop-opacity="0.4"/>
</linearGradient>
<linearGradient id="paint3_linear_5186_30458" x1="30.4561" y1="13.3281" x2="30.4561" y2="14.7632" gradientUnits="userSpaceOnUse">
<stop stop-color="white" stop-opacity="0.6"/>
<stop offset="1" stop-color="white" stop-opacity="0.4"/>
</linearGradient>
<linearGradient id="paint4_linear_5186_30458" x1="28.6149" y1="23.168" x2="28.6149" y2="43.6478" gradientUnits="userSpaceOnUse">
<stop stop-color="white" stop-opacity="0.6"/>
<stop offset="1" stop-color="white" stop-opacity="0.4"/>
</linearGradient>
<linearGradient id="paint5_linear_5186_30458" x1="19.5933" y1="26.6489" x2="40.6543" y2="35.1572" gradientUnits="userSpaceOnUse">
<stop stop-color="white" stop-opacity="0.4"/>
<stop offset="1" stop-color="white" stop-opacity="0.1"/>
</linearGradient>
<linearGradient id="paint6_linear_5186_30458" x1="13.2918" y1="2.69531" x2="13.2918" y2="16.9658" gradientUnits="userSpaceOnUse">
<stop stop-color="white" stop-opacity="0.6"/>
<stop offset="1" stop-color="white" stop-opacity="0.4"/>
</linearGradient>
<linearGradient id="paint7_linear_5186_30458" x1="7.00547" y1="5.12083" x2="21.681" y2="11.0495" gradientUnits="userSpaceOnUse">
<stop stop-color="white" stop-opacity="0.4"/>
<stop offset="1" stop-color="white" stop-opacity="0.1"/>
</linearGradient>
<linearGradient id="paint8_linear_5186_30458" x1="11.4444" y1="8.01172" x2="11.4444" y2="9.44682" gradientUnits="userSpaceOnUse">
<stop stop-color="white" stop-opacity="0.6"/>
<stop offset="1" stop-color="white" stop-opacity="0.4"/>
</linearGradient>
<linearGradient id="paint9_linear_5186_30458" x1="15.1338" y1="8.01172" x2="15.1338" y2="9.44682" gradientUnits="userSpaceOnUse">
<stop stop-color="white" stop-opacity="0.6"/>
<stop offset="1" stop-color="white" stop-opacity="0.4"/>
</linearGradient>
<linearGradient id="paint10_linear_5186_30458" x1="13.1795" y1="17.9141" x2="13.1795" y2="38.3939" gradientUnits="userSpaceOnUse">
<stop stop-color="white" stop-opacity="0.6"/>
<stop offset="1" stop-color="white" stop-opacity="0.4"/>
</linearGradient>
<linearGradient id="paint11_linear_5186_30458" x1="4.22632" y1="21.395" x2="24.6252" y2="29.2827" gradientUnits="userSpaceOnUse">
<stop stop-color="white" stop-opacity="0.4"/>
<stop offset="1" stop-color="white" stop-opacity="0.1"/>
</linearGradient>
<linearGradient id="paint12_linear_5186_30458" x1="43.7101" y1="2.69531" x2="43.7101" y2="16.9658" gradientUnits="userSpaceOnUse">
<stop stop-color="white" stop-opacity="0.6"/>
<stop offset="1" stop-color="white" stop-opacity="0.4"/>
</linearGradient>
<linearGradient id="paint13_linear_5186_30458" x1="49.9965" y1="5.12083" x2="35.321" y2="11.0495" gradientUnits="userSpaceOnUse">
<stop stop-color="white" stop-opacity="0.4"/>
<stop offset="1" stop-color="white" stop-opacity="0.1"/>
</linearGradient>
<linearGradient id="paint14_linear_5186_30458" x1="45.5556" y1="8.01172" x2="45.5556" y2="9.44682" gradientUnits="userSpaceOnUse">
<stop stop-color="white" stop-opacity="0.6"/>
<stop offset="1" stop-color="white" stop-opacity="0.4"/>
</linearGradient>
<linearGradient id="paint15_linear_5186_30458" x1="41.8662" y1="8.01172" x2="41.8662" y2="9.44682" gradientUnits="userSpaceOnUse">
<stop stop-color="white" stop-opacity="0.6"/>
<stop offset="1" stop-color="white" stop-opacity="0.4"/>
</linearGradient>
<linearGradient id="paint16_linear_5186_30458" x1="43.8224" y1="17.9141" x2="43.8224" y2="38.3939" gradientUnits="userSpaceOnUse">
<stop stop-color="white" stop-opacity="0.6"/>
<stop offset="1" stop-color="white" stop-opacity="0.4"/>
</linearGradient>
<linearGradient id="paint17_linear_5186_30458" x1="52.7756" y1="21.395" x2="32.3768" y2="29.2827" gradientUnits="userSpaceOnUse">
<stop stop-color="white" stop-opacity="0.4"/>
<stop offset="1" stop-color="white" stop-opacity="0.1"/>
</linearGradient>
</defs>
</svg>
