<svg width="33" height="32" viewBox="0 0 33 32" fill="none" xmlns="http://www.w3.org/2000/svg">
<path d="M16.4997 18.0005C16.3229 18.0005 16.1533 17.9302 16.0283 17.8052C15.9032 17.6802 15.833 17.5106 15.833 17.3338V12.0005C15.833 11.8237 15.9032 11.6541 16.0283 11.5291C16.1533 11.4041 16.3229 11.3338 16.4997 11.3338C16.6765 11.3338 16.8461 11.4041 16.9711 11.5291C17.0961 11.6541 17.1663 11.8237 17.1663 12.0005V17.3338C17.1663 17.5106 17.0961 17.6802 16.9711 17.8052C16.8461 17.9302 16.6765 18.0005 16.4997 18.0005ZM17.0283 23.8405C18.4683 23.2618 23.1663 20.9865 23.1663 16.0292V12.5818C23.1671 11.8812 22.9467 11.1981 22.5366 10.63C22.1265 10.0619 21.5476 9.63771 20.8823 9.41782L16.7097 8.03448C16.5735 7.98851 16.4259 7.98851 16.2897 8.03448L12.117 9.41782C11.4518 9.63771 10.8728 10.0619 10.4627 10.63C10.0526 11.1981 9.83227 11.8812 9.83301 12.5818V16.0292C9.83301 20.4038 14.503 23.0798 15.935 23.7958C16.1161 23.8822 16.3052 23.9508 16.4997 24.0005C16.6804 23.9635 16.8574 23.91 17.0283 23.8405ZM20.4623 10.6832C20.8614 10.8154 21.2086 11.0701 21.4546 11.4109C21.7007 11.7517 21.8331 12.1614 21.833 12.5818V16.0292C21.833 20.1512 17.775 22.1032 16.531 22.6032C15.2723 21.9738 11.1663 19.6398 11.1663 16.0292V12.5818C11.1663 12.1614 11.2987 11.7517 11.5447 11.4109C11.7908 11.0701 12.138 10.8154 12.537 10.6832L16.4997 9.36982L20.4623 10.6832ZM16.4997 19.3338C16.3678 19.3338 16.2389 19.3729 16.1293 19.4462C16.0197 19.5194 15.9342 19.6235 15.8838 19.7454C15.8333 19.8672 15.8201 20.0012 15.8458 20.1305C15.8715 20.2599 15.935 20.3787 16.0283 20.4719C16.1215 20.5651 16.2403 20.6286 16.3696 20.6543C16.4989 20.6801 16.633 20.6669 16.7548 20.6164C16.8766 20.5659 16.9807 20.4805 17.054 20.3709C17.1272 20.2612 17.1663 20.1323 17.1663 20.0005C17.1663 19.8237 17.0961 19.6541 16.9711 19.5291C16.8461 19.4041 16.6765 19.3338 16.4997 19.3338Z" fill="#9E9E9E"/>
</svg>
