<svg width="12" height="13" viewBox="0 0 12 13" fill="none" xmlns="http://www.w3.org/2000/svg">
<g id="fi-rr-thumbs-down" clip-path="url(#clip0_3676_8742)">
<path id="Vector" d="M0.0244989 6.65L0.376999 4.15C0.463644 3.55497 0.760861 3.01075 1.21465 2.61623C1.66844 2.22171 2.2487 2.00306 2.85 2H9.5C10.1628 2.00079 10.7982 2.26444 11.2669 2.73311C11.7356 3.20178 11.9992 3.8372 12 4.5V7C11.9992 7.6628 11.7356 8.29822 11.2669 8.76689C10.7982 9.23556 10.1628 9.49921 9.5 9.5H8.144L7.187 11.439C7.02612 11.7658 6.75312 12.0239 6.41781 12.1662C6.0825 12.3084 5.70721 12.3255 5.3604 12.2141C5.01359 12.1027 4.71836 11.8704 4.52857 11.5595C4.33877 11.2486 4.26706 10.8799 4.3265 10.5205L4.4945 9.5H2.5C2.14211 9.50002 1.78839 9.42319 1.46275 9.27472C1.13711 9.12625 0.847148 8.9096 0.612459 8.63941C0.377769 8.36921 0.203828 8.05178 0.102393 7.70857C0.000957489 7.36535 -0.0256062 7.00436 0.0244989 6.65ZM9.5 3H8.5V8.5H9.5C9.89782 8.5 10.2794 8.34196 10.5607 8.06066C10.842 7.77936 11 7.39782 11 7V4.5C11 4.10218 10.842 3.72064 10.5607 3.43934C10.2794 3.15804 9.89782 3 9.5 3ZM1.368 7.984C1.50879 8.14598 1.6827 8.27587 1.87798 8.36489C2.07327 8.45391 2.28538 8.49998 2.5 8.5H5.0835C5.15602 8.49998 5.22768 8.51575 5.2935 8.54619C5.35932 8.57664 5.41774 8.62103 5.46469 8.67631C5.51164 8.73158 5.546 8.79641 5.56539 8.86629C5.58479 8.93617 5.58875 9.00944 5.577 9.081L5.313 10.681C5.30032 10.7553 5.30419 10.8314 5.32433 10.904C5.34446 10.9766 5.38038 11.0439 5.4295 11.101C5.4871 11.1631 5.55862 11.2106 5.63817 11.2397C5.71773 11.2687 5.80304 11.2785 5.8871 11.2682C5.97116 11.2578 6.05157 11.2276 6.1217 11.1802C6.19183 11.1327 6.24968 11.0692 6.2905 10.995L7.385 8.779C7.41387 8.72357 7.45288 8.67405 7.5 8.633V3H2.85C2.48887 3.00132 2.14023 3.13236 1.86765 3.36925C1.59506 3.60613 1.41667 3.93308 1.365 4.2905L1.012 6.7905C0.98239 7.00333 0.998853 7.22003 1.06027 7.42594C1.12169 7.63186 1.22664 7.82217 1.368 7.984Z" fill="#9E9E9E"/>
</g>
<defs>
<clipPath id="clip0_3676_8742">
<rect width="12" height="12" fill="white" transform="matrix(-1 0 0 1 12 0.5)"/>
</clipPath>
</defs>
</svg>
